<!DOCTYPE svg PUBLIC "-//W3C//DTD SVG 20010904//EN" "http://www.w3.org/TR/2001/REC-SVG-20010904/DTD/svg10.dtd">
<svg version="1.0" xmlns="http://www.w3.org/2000/svg" width="711px" height="181px" viewBox="0 0 7110 1810" preserveAspectRatio="xMidYMid meet">
<g id="layer101" fill="#000000" stroke="none">
 <path d="M1370 1800 c-118 -19 -233 -78 -290 -150 -33 -41 -80 -136 -80 -161 0 -11 30 -22 126 -43 69 -16 127 -26 129 -24 3 3 15 24 28 49 39 73 110 109 217 109 63 0 130 -27 154 -61 24 -35 21 -91 -6 -116 -36 -32 -56 -40 -189 -72 -232 -55 -313 -101 -365 -208 -26 -52 -29 -69 -29 -154 0 -90 2 -100 35 -165 67 -131 180 -194 361 -202 176 -7 294 32 382 127 51 54 95 137 80 151 -4 5 -59 24 -121 43 l-113 35 -10 -26 c-15 -41 -69 -91 -109 -102 -46 -13 -122 -13 -157 1 -92 35 -100 125 -14 174 7 4 81 24 165 45 83 20 172 47 198 60 70 33 133 93 165 158 25 50 28 68 28 152 0 82 -4 103 -27 152 -49 105 -145 180 -271 214 -68 18 -217 25 -287 14z"/>
 <path d="M2211 1800 c-61 -13 -127 -55 -156 -98 -34 -51 -49 -136 -35 -197 35 -155 156 -228 410 -250 127 -11 123 -8 118 -66 -8 -83 -69 -122 -162 -105 -46 9 -96 56 -96 91 l0 28 -92 -7 c-51 -4 -108 -9 -126 -13 -32 -5 -34 -8 -28 -37 20 -100 102 -181 221 -218 92 -29 271 -32 357 -5 67 20 134 69 163 117 19 33 20 57 26 370 4 184 10 345 14 358 l7 22 -130 0 -130 0 -7 -56 -7 -56 -41 40 c-23 23 -63 50 -89 62 -55 24 -154 33 -217 20z m237 -174 c64 -34 102 -104 102 -191 0 -64 1 -63 -99 -40 -110 26 -161 72 -161 146 0 22 10 41 34 65 38 38 77 44 124 20z"/>
 <path d="M3299 1797 c-57 -16 -99 -46 -130 -91 -13 -20 -27 -36 -31 -36 -4 0 -17 27 -29 60 l-22 60 -73 0 -74 0 0 -590 0 -590 130 0 130 0 0 206 0 207 23 -34 c12 -19 43 -45 67 -59 38 -21 58 -25 130 -25 76 0 91 3 140 31 69 39 123 112 153 209 30 96 32 321 3 405 -41 121 -94 186 -181 226 -63 29 -172 39 -236 21z m117 -212 c44 -47 57 -116 52 -270 -4 -99 -8 -127 -27 -163 -55 -107 -187 -86 -221 36 -17 62 -13 305 7 353 19 50 63 79 117 79 31 0 45 -7 72 -35z"/>
 <path d="M3952 1792 c-113 -36 -166 -110 -166 -232 -1 -123 52 -198 178 -256 52 -24 213 -54 291 -54 60 0 69 -10 63 -65 -4 -33 -14 -55 -32 -74 -23 -22 -35 -26 -89 -26 -74 0 -122 27 -135 78 l-9 32 -79 -2 c-43 -1 -99 -5 -123 -8 l-43 -7 5 -36 c4 -19 19 -56 34 -81 66 -106 186 -156 373 -156 132 0 208 19 274 70 81 62 80 58 87 435 3 184 10 345 14 358 l7 22 -130 0 -129 0 -7 -31 c-3 -17 -6 -43 -6 -56 0 -24 -3 -22 -54 24 -86 79 -206 103 -324 65z m267 -167 c65 -33 101 -104 101 -199 l0 -48 -46 7 c-139 20 -214 70 -214 142 1 91 80 139 159 98z"/>
 <path d="M4907 1800 c-117 -30 -197 -134 -228 -294 -13 -72 -11 -241 5 -317 19 -90 66 -179 118 -223 98 -84 265 -88 357 -9 l41 35 0 -191 0 -191 130 0 130 0 0 590 0 590 -125 0 -125 0 0 -57 0 -57 -36 43 c-20 23 -54 51 -75 61 -46 24 -138 33 -192 20z m220 -200 c55 -33 67 -69 71 -211 5 -155 -9 -231 -48 -271 -58 -58 -148 -27 -185 64 -26 65 -32 227 -11 308 29 113 97 157 173 110z"/>
 <path d="M5862 1795 c-160 -35 -271 -153 -308 -327 -36 -169 21 -370 132 -468 100 -87 252 -120 389 -84 182 47 280 182 301 412 l7 72 -283 0 -283 0 6 50 c12 97 59 153 140 167 70 11 167 -59 167 -120 0 -16 6 -17 43 -13 23 3 77 8 120 12 90 7 92 10 51 93 -53 107 -164 187 -288 210 -75 14 -115 13 -194 -4z m253 -587 c-15 -67 -42 -105 -88 -123 -89 -34 -174 18 -197 120 l-8 35 150 0 150 0 -7 -32z"/>
 <path d="M6480 1200 l0 -590 130 0 130 0 0 590 0 590 -130 0 -130 0 0 -590z"/>
 <path d="M6850 1200 l0 -590 130 0 130 0 0 590 0 590 -130 0 -130 0 0 -590z"/>
 <path d="M353 1306 c-138 -34 -250 -125 -312 -255 -35 -75 -36 -78 -36 -202 0 -124 0 -126 37 -200 194 -391 763 -334 873 88 88 336 -223 651 -562 569z"/>
 <path d="M1427 380 c-13 -11 -28 -32 -31 -46 l-7 -27 -20 32 c-27 44 -53 51 -190 51 l-119 0 0 -195 0 -195 124 0 c119 0 126 1 154 25 17 14 34 39 37 56 8 35 -9 85 -33 94 -13 5 -11 10 11 33 14 15 29 40 33 55 l6 28 19 -30 c19 -32 67 -51 127 -51 29 0 33 -3 30 -22 -4 -32 -51 -37 -71 -8 -12 17 -21 20 -56 14 -22 -4 -41 -8 -41 -10 0 -2 5 -15 12 -29 31 -68 180 -85 231 -27 11 13 16 49 19 140 l4 122 -42 0 c-23 0 -44 -5 -46 -11 -2 -6 -14 -5 -33 5 -41 22 -87 20 -118 -4z m123 -60 c43 -43 13 -80 -38 -44 -25 17 -28 34 -10 52 17 17 25 15 48 -8z m-276 -32 c19 -31 -4 -53 -63 -56 l-51 -3 0 41 0 41 51 -3 c36 -2 55 -8 63 -20z m-16 -147 c8 -4 12 -19 10 -32 -3 -21 -9 -24 -55 -27 l-53 -3 0 35 c0 36 0 36 43 36 23 0 48 -4 55 -9z"/>
 <path d="M2045 386 c-16 -7 -38 -22 -47 -32 -36 -40 -41 -143 -10 -200 26 -48 106 -74 166 -54 65 21 116 110 64 110 -13 0 -33 3 -44 6 -17 4 -23 0 -28 -20 -8 -32 -50 -36 -66 -7 -14 27 -13 94 3 115 17 23 49 17 62 -12 8 -19 16 -22 50 -20 49 4 57 30 24 72 -40 51 -113 69 -174 42z"/>
 <path d="M2334 390 c-56 -22 -93 -104 -80 -178 21 -132 204 -165 260 -47 23 47 21 130 -4 170 -33 54 -115 80 -176 55z m84 -72 c7 -7 12 -39 12 -73 0 -63 -11 -85 -42 -85 -24 0 -38 31 -38 85 0 25 5 55 10 66 12 21 40 25 58 7z"/>
 <path d="M1690 245 l0 -145 45 0 c36 0 45 4 46 18 0 9 3 12 5 5 9 -22 71 -36 108 -23 47 15 56 44 56 175 l0 115 -45 0 -45 0 0 -93 c0 -104 -14 -141 -47 -121 -24 15 -31 45 -32 137 l-1 77 -45 0 -45 0 0 -145z"/>
 </g>
<g id="layer102" fill="#ffffff" stroke="none">
 <path d="M1370 1800 c-118 -19 -233 -78 -290 -150 -33 -41 -80 -136 -80 -161 0 -11 30 -22 126 -43 69 -16 127 -26 129 -24 3 3 15 24 28 49 39 73 110 109 217 109 63 0 130 -27 154 -61 24 -35 21 -91 -6 -116 -36 -32 -56 -40 -189 -72 -232 -55 -313 -101 -365 -208 -26 -52 -29 -69 -29 -154 0 -90 2 -100 35 -165 67 -131 180 -194 361 -202 176 -7 294 32 382 127 51 54 95 137 80 151 -4 5 -59 24 -121 43 l-113 35 -10 -26 c-15 -41 -69 -91 -109 -102 -46 -13 -122 -13 -157 1 -92 35 -100 125 -14 174 7 4 81 24 165 45 83 20 172 47 198 60 70 33 133 93 165 158 25 50 28 68 28 152 0 82 -4 103 -27 152 -49 105 -145 180 -271 214 -68 18 -217 25 -287 14z"/>
 <path d="M2211 1800 c-61 -13 -127 -55 -156 -98 -34 -51 -49 -136 -35 -197 35 -155 156 -228 410 -250 127 -11 123 -8 118 -66 -8 -83 -69 -122 -162 -105 -46 9 -96 56 -96 91 l0 28 -92 -7 c-51 -4 -108 -9 -126 -13 -32 -5 -34 -8 -28 -37 20 -100 102 -181 221 -218 92 -29 271 -32 357 -5 67 20 134 69 163 117 19 33 20 57 26 370 4 184 10 345 14 358 l7 22 -130 0 -130 0 -7 -56 -7 -56 -41 40 c-23 23 -63 50 -89 62 -55 24 -154 33 -217 20z m237 -174 c64 -34 102 -104 102 -191 0 -64 1 -63 -99 -40 -110 26 -161 72 -161 146 0 22 10 41 34 65 38 38 77 44 124 20z"/>
 <path d="M3299 1797 c-57 -16 -99 -46 -130 -91 -13 -20 -27 -36 -31 -36 -4 0 -17 27 -29 60 l-22 60 -73 0 -74 0 0 -590 0 -590 130 0 130 0 0 206 0 207 23 -34 c12 -19 43 -45 67 -59 38 -21 58 -25 130 -25 76 0 91 3 140 31 69 39 123 112 153 209 30 96 32 321 3 405 -41 121 -94 186 -181 226 -63 29 -172 39 -236 21z m117 -212 c44 -47 57 -116 52 -270 -4 -99 -8 -127 -27 -163 -55 -107 -187 -86 -221 36 -17 62 -13 305 7 353 19 50 63 79 117 79 31 0 45 -7 72 -35z"/>
 <path d="M3952 1792 c-113 -36 -166 -110 -166 -232 -1 -123 52 -198 178 -256 52 -24 213 -54 291 -54 60 0 69 -10 63 -65 -4 -33 -14 -55 -32 -74 -23 -22 -35 -26 -89 -26 -74 0 -122 27 -135 78 l-9 32 -79 -2 c-43 -1 -99 -5 -123 -8 l-43 -7 5 -36 c4 -19 19 -56 34 -81 66 -106 186 -156 373 -156 132 0 208 19 274 70 81 62 80 58 87 435 3 184 10 345 14 358 l7 22 -130 0 -129 0 -7 -31 c-3 -17 -6 -43 -6 -56 0 -24 -3 -22 -54 24 -86 79 -206 103 -324 65z m267 -167 c65 -33 101 -104 101 -199 l0 -48 -46 7 c-139 20 -214 70 -214 142 1 91 80 139 159 98z"/>
 <path d="M4907 1800 c-117 -30 -197 -134 -228 -294 -13 -72 -11 -241 5 -317 19 -90 66 -179 118 -223 98 -84 265 -88 357 -9 l41 35 0 -191 0 -191 130 0 130 0 0 590 0 590 -125 0 -125 0 0 -57 0 -57 -36 43 c-20 23 -54 51 -75 61 -46 24 -138 33 -192 20z m220 -200 c55 -33 67 -69 71 -211 5 -155 -9 -231 -48 -271 -58 -58 -148 -27 -185 64 -26 65 -32 227 -11 308 29 113 97 157 173 110z"/>
 <path d="M5862 1795 c-160 -35 -271 -153 -308 -327 -36 -169 21 -370 132 -468 100 -87 252 -120 389 -84 182 47 280 182 301 412 l7 72 -283 0 -283 0 6 50 c12 97 59 153 140 167 70 11 167 -59 167 -120 0 -16 6 -17 43 -13 23 3 77 8 120 12 90 7 92 10 51 93 -53 107 -164 187 -288 210 -75 14 -115 13 -194 -4z m253 -587 c-15 -67 -42 -105 -88 -123 -89 -34 -174 18 -197 120 l-8 35 150 0 150 0 -7 -32z"/>
 <path d="M6480 1200 l0 -590 130 0 130 0 0 590 0 590 -130 0 -130 0 0 -590z"/>
 <path d="M6850 1200 l0 -590 130 0 130 0 0 590 0 590 -130 0 -130 0 0 -590z"/>
 <path d="M280 850 l0 -230 130 0 c145 0 182 10 219 56 40 51 19 130 -42 158 -9 4 -8 8 3 13 8 3 27 19 42 34 36 35 39 102 7 143 -38 49 -66 56 -219 56 l-140 0 0 -230z m233 141 c28 -11 42 -41 32 -70 -7 -24 -23 -30 -97 -38 l-58 -6 0 62 0 61 49 0 c27 0 61 -4 74 -9z m11 -207 c21 -20 20 -43 -1 -66 -12 -13 -31 -18 -75 -18 l-58 0 0 50 0 50 59 0 c41 0 65 -5 75 -16z"/>
 <path d="M1427 380 c-13 -11 -28 -32 -31 -46 l-7 -27 -20 32 c-27 44 -53 51 -190 51 l-119 0 0 -195 0 -195 124 0 c119 0 126 1 154 25 17 14 34 39 37 56 8 35 -9 85 -33 94 -13 5 -11 10 11 33 14 15 29 40 33 55 l6 28 19 -30 c19 -32 67 -51 127 -51 29 0 33 -3 30 -22 -4 -32 -51 -37 -71 -8 -12 17 -21 20 -56 14 -22 -4 -41 -8 -41 -10 0 -2 5 -15 12 -29 31 -68 180 -85 231 -27 11 13 16 49 19 140 l4 122 -42 0 c-23 0 -44 -5 -46 -11 -2 -6 -14 -5 -33 5 -41 22 -87 20 -118 -4z m123 -60 c43 -43 13 -80 -38 -44 -25 17 -28 34 -10 52 17 17 25 15 48 -8z m-276 -32 c19 -31 -4 -53 -63 -56 l-51 -3 0 41 0 41 51 -3 c36 -2 55 -8 63 -20z m-16 -147 c8 -4 12 -19 10 -32 -3 -21 -9 -24 -55 -27 l-53 -3 0 35 c0 36 0 36 43 36 23 0 48 -4 55 -9z"/>
 <path d="M2045 386 c-16 -7 -38 -22 -47 -32 -36 -40 -41 -143 -10 -200 26 -48 106 -74 166 -54 65 21 116 110 64 110 -13 0 -33 3 -44 6 -17 4 -23 0 -28 -20 -8 -32 -50 -36 -66 -7 -14 27 -13 94 3 115 17 23 49 17 62 -12 8 -19 16 -22 50 -20 49 4 57 30 24 72 -40 51 -113 69 -174 42z"/>
 <path d="M2334 390 c-56 -22 -93 -104 -80 -178 21 -132 204 -165 260 -47 23 47 21 130 -4 170 -33 54 -115 80 -176 55z m84 -72 c7 -7 12 -39 12 -73 0 -63 -11 -85 -42 -85 -24 0 -38 31 -38 85 0 25 5 55 10 66 12 21 40 25 58 7z"/>
 <path d="M1690 245 l0 -145 45 0 c36 0 45 4 46 18 0 9 3 12 5 5 9 -22 71 -36 108 -23 47 15 56 44 56 175 l0 115 -45 0 -45 0 0 -93 c0 -104 -14 -141 -47 -121 -24 15 -31 45 -32 137 l-1 77 -45 0 -45 0 0 -145z"/>
 </g>

</svg>