<svg id="Layer_1" data-name="Layer 1" xmlns="http://www.w3.org/2000/svg" viewBox="0 0 20 20"><defs><style>.cls-1{fill:#fff;}.cls-2{fill:#006dff;}</style></defs><title></title><g id="Page-1"><g id="ic_help" data-name="ic help"><g id="Group"><g id="help-circle"><circle id="Oval" class="cls-1" cx="10" cy="10" r="8"/><path id="Shape" class="cls-2" d="M13.07,9.25l-.9.92A3.39,3.39,0,0,0,11,13H9v-.5a4,4,0,0,1,1.17-2.83l1.24-1.26A2,2,0,0,0,12,7,2,2,0,0,0,8,7H6a4,4,0,0,1,8,0A3.2,3.2,0,0,1,13.07,9.25ZM11,17H9V15h2ZM10,0A10,10,0,1,0,20,10,10,10,0,0,0,10,0Z" transform="translate(0 0)"/></g></g></g></g></svg>
