<?xml version="1.0" encoding="utf-8"?>
<!-- Generator: Adobe Illustrator 22.1.0, SVG Export Plug-In . SVG Version: 6.00 Build 0)  -->
<svg version="1.1" id="Capa_1" xmlns="http://www.w3.org/2000/svg"  x="0px" y="0px"
	 viewBox="0 0 512 512" style="enable-background:new 0 0 512 512;" xml:space="preserve">
<style type="text/css">
	.st0{fill:#FFFFFF;}
</style>
<g>
	<g>
		<g>
			<path class="st0" d="M460,357.1V73.5c0-25.2-20.5-45.8-45.8-45.8H375V10c0-5.5-4.5-10-10-10c-5.5,0-10,4.5-10,10v17.7h-70.2V10
				c0-5.5-4.5-10-10-10c-5.5,0-10,4.5-10,10v17.7h-69.7V10c0-5.5-4.5-10-10-10c-5.5,0-10,4.5-10,10v17.7H105V10c0-5.5-4.5-10-10-10
				S85,4.5,85,10v17.7H45.8C20.5,27.7,0,48.3,0,73.5v370.7C0,469.5,20.5,490,45.8,490H377c14.4,13.6,33.7,22,55,22
				c44.1,0,80-35.9,80-80C512,397.7,490.3,368.4,460,357.1z M20,73.5c0-14.2,11.6-25.8,25.8-25.8H85V70c0,5.5,4.5,10,10,10
				s10-4.5,10-10V47.7h70.1V70c0,5.5,4.5,10,10,10c5.5,0,10-4.5,10-10V47.7h69.7V70c0,5.5,4.5,10,10,10c5.5,0,10-4.5,10-10V47.7H355
				V70c0,5.5,4.5,10,10,10c5.5,0,10-4.5,10-10V47.7h39.2c14.2,0,25.8,11.6,25.8,25.8V141H20L20,73.5L20,73.5z M20,161h420v20H20
				C20,181,20,161,20,161z M45.8,470C31.6,470,20,458.4,20,444.2V201h420v151.4c-2.6-0.3-5.3-0.4-8-0.4c-44.1,0-80,35.9-80,80
				c0,13.7,3.5,26.7,9.6,38H45.8z M432,492c-33.1,0-60-26.9-60-60s26.9-60,60-60s60,26.9,60,60S465.1,492,432,492z"/>
			<path class="st0" d="M464,409c-4.4-3.3-10.7-2.4-14,2.1l-25.4,34.1l-14.8-13.5c-4.1-3.7-10.4-3.4-14.1,0.6
				c-3.7,4.1-3.4,10.4,0.6,14.1l23,21c1.9,1.7,4.3,2.6,6.7,2.6c0.3,0,0.6,0,1,0c2.8-0.3,5.4-1.7,7.1-4l32-43
				C469.3,418.5,468.4,412.3,464,409z"/>
			<path class="st0" d="M365,100c-5.5,0-10,4.5-10,10c0,5.5,4.5,10,10,10c5.5,0,10-4.5,10-10C375,104.5,370.5,100,365,100z"/>
			<path class="st0" d="M274.9,100c-5.5,0-10,4.5-10,10c0,5.5,4.5,10,10,10c5.5,0,10-4.5,10-10C284.9,104.5,280.4,100,274.9,100z"/>
			<path class="st0" d="M185.1,100c-5.5,0-10,4.5-10,10s4.5,10,10,10c5.5,0,10-4.5,10-10S190.6,100,185.1,100z"/>
			<path class="st0" d="M95,100c-5.5,0-10,4.5-10,10s4.5,10,10,10s10-4.5,10-10S100.6,100,95,100z"/>
			<path class="st0" d="M56,327h80c5.5,0,10-4.5,10-10v-80c0-5.5-4.5-10-10-10H56c-5.5,0-10,4.5-10,10v80C46,322.5,50.5,327,56,327z
				 M66,247h60v60H66V247z"/>
			<path class="st0" d="M270,376H56c-5.5,0-10,4.5-10,10s4.5,10,10,10h214c5.5,0,10-4.5,10-10S275.5,376,270,376z"/>
			<path class="st0" d="M270,416H56c-5.5,0-10,4.5-10,10s4.5,10,10,10h214c5.5,0,10-4.5,10-10S275.5,416,270,416z"/>
			<path class="st0" d="M270,227h-80c-5.5,0-10,4.5-10,10v80c0,5.5,4.5,10,10,10h80c5.5,0,10-4.5,10-10v-80
				C280,231.5,275.5,227,270,227z M260,307h-60v-60h60V307z"/>
			<path class="st0" d="M414,317v-80c0-5.5-4.5-10-10-10h-80c-5.5,0-10,4.5-10,10v80c0,5.5,4.5,10,10,10h80
				C409.5,327,414,322.5,414,317z M394,307h-60v-60h60V307z"/>
		</g>
	</g>
</g>
</svg>
