<?xml version="1.0" encoding="utf-8"?>
<!-- Generator: Adobe Illustrator 22.1.0, SVG Export Plug-In . SVG Version: 6.00 Build 0)  -->
<svg version="1.1" id="Layer_1" xmlns="http://www.w3.org/2000/svg" xmlns:xlink="http://www.w3.org/1999/xlink" x="0px" y="0px"
	 viewBox="0 0 392.4 392.4" style="enable-background:new 0 0 392.4 392.4;" xml:space="preserve">
<style type="text/css">
	.st0{fill:#FFFFFF;}
</style>
<path class="st0" d="M357.4,301.8v-32.5c0-6-4.8-10.9-10.9-10.9H207.3v-24.1h6.5c4.6,0,8.7-2.8,10.3-7.2l7.6-21.2
	c0.8-0.3,1.6-0.6,2.3-0.9l20.4,9.6c4.2,1.9,9.1,1.1,12.3-2.1l24.8-24.8c3.2-3.2,4.1-8.2,2.1-12.3l-9.6-20.4c0.3-0.8,0.6-1.6,0.9-2.3
	l21.2-7.6c4.3-1.6,7.2-5.6,7.2-10.3V99.6c0-4.6-2.8-8.7-7.2-10.3L285,81.6c-0.3-0.8-0.6-1.6-0.9-2.3l9.6-20.4
	c1.9-4.2,1.1-9.1-2.1-12.3l-24.8-24.7c-3.2-3.2-8.2-4.1-12.3-2.1L234,29.3c-0.8-0.3-1.6-0.6-2.3-0.9l-7.6-21.2
	c-1.6-4.3-5.6-7.2-10.3-7.2h-35c-4.6,0-8.7,2.8-10.3,7.2l-7.6,21.2c-0.8,0.3-1.6,0.6-2.3,0.9l-20.4-9.6c-4.2-1.9-9.1-1.1-12.3,2.1
	L101,46.6c-3.2,3.2-4.1,8.2-2.1,12.3l9.6,20.4c-0.3,0.8-0.6,1.6-0.9,2.3l-21.2,7.6c-4.3,1.6-7.2,5.6-7.2,10.3v35
	c0,4.6,2.8,8.7,7.2,10.3l21.2,7.6c0.3,0.8,0.6,1.6,0.9,2.3L99,175.1c-1.9,4.2-1.1,9.1,2.1,12.3l24.8,24.7c3.2,3.2,8.2,4.1,12.3,2.1
	l20.4-9.6c0.8,0.3,1.6,0.6,2.3,0.9l7.6,21.2c1.6,4.3,5.6,7.2,10.3,7.2h6.6v24.2H46.1c-6,0-10.9,4.8-10.9,10.9v32.4
	C15,306.6,0,324.8,0,346.4c0,25.4,20.6,46,46,46s46-20.6,46-46c0-21.7-15-39.8-35.2-44.7v-21.5h128.5v21.5
	c-20.2,4.9-35.2,23-35.2,44.7c0,25.4,20.6,46,46,46s46-20.6,46-46c0-21.7-15-39.8-35.2-44.7v-21.5h128.5v21.5
	c-20.2,4.9-35.2,23-35.2,44.7c0,25.4,20.6,46,46,46c25.4,0,46-20.6,46-46C392.6,324.8,377.6,306.6,357.4,301.8z M46.1,370.7
	c-13.4,0-24.2-10.9-24.2-24.2c0-13.4,10.9-24.2,24.2-24.2s24.2,10.9,24.2,24.2C70.4,359.8,59.5,370.7,46.1,370.7z M196.3,370.7
	c-13.4,0-24.2-10.9-24.2-24.2c0-13.4,10.9-24.2,24.2-24.2c13.4,0,24.2,10.9,24.2,24.2S209.7,370.7,196.3,370.7z M172.9,187.1
	c-3.1-1.1-6.3-2.4-9.4-3.9c-3-1.5-6.5-1.6-9.5-0.1l-18.1,8.4L122,177.5l8.4-18.1c1.4-3,1.4-6.5-0.1-9.5c-1.6-3.2-2.8-6.3-3.9-9.4
	c-1.1-3.2-3.5-5.6-6.7-6.8l-18.7-6.8v-19.7l18.7-6.8c3.1-1.2,5.6-3.6,6.7-6.8c1.1-3.1,2.4-6.3,3.9-9.4c1.5-3,1.6-6.5,0.1-9.5
	L122,56.6l13.9-13.9l18.1,8.4c3,1.4,6.5,1.4,9.5-0.1c3.2-1.6,6.3-2.8,9.4-3.9c3.2-1.1,5.6-3.5,6.8-6.7l6.8-18.7h19.7l6.8,18.7
	c1.2,3.2,3.6,5.6,6.8,6.7c3.1,1.1,6.3,2.4,9.4,3.9c3,1.5,6.5,1.6,9.5,0.1l18.1-8.4l13.9,13.9l-8.4,18.1c-1.4,3-1.4,6.5,0.1,9.5
	c1.6,3.1,2.8,6.3,3.9,9.4c1.1,3.2,3.5,5.6,6.7,6.8l18.7,6.8v19.7l-18.7,6.8c-3.1,1.2-5.6,3.6-6.7,6.8c-1.1,3.1-2.4,6.3-3.9,9.4
	c-1.5,3-1.6,6.5-0.1,9.5l8.4,18.1l-13.9,13.9l-18.1-8.4c-3-1.4-6.5-1.4-9.5,0.1c-3.1,1.6-6.3,2.8-9.4,3.9c-3.2,1.1-5.6,3.5-6.8,6.7
	l-6.8,18.7h-19.7l-6.8-18.7C178.6,190.6,176,188.1,172.9,187.1z M346.6,370.7c-13.4,0-24.2-10.9-24.2-24.2
	c0-13.4,10.9-24.2,24.2-24.2c13.4,0,24.2,10.9,24.2,24.2S359.9,370.7,346.6,370.7z"/>
<path class="st0" d="M196.3,85.5c-17.4,0-31.5,14.2-31.5,31.5s14.2,31.5,31.5,31.5s31.5-14.2,31.5-31.5S213.7,85.5,196.3,85.5z"/>
<path class="st0" d="M196.3,63.7c-29.4,0-53.4,24-53.4,53.4s24,53.4,53.4,53.4s53.4-24,53.4-53.4C249.7,87.7,225.7,63.7,196.3,63.7z
	 M196.3,148.6c-17.4,0-31.5-14.2-31.5-31.5s14.2-31.5,31.5-31.5s31.5,14.2,31.5,31.5S213.7,148.6,196.3,148.6z"/>
</svg>
