<?xml version="1.0" encoding="utf-8"?>
<!-- Generator: Adobe Illustrator 23.0.1, SVG Export Plug-In . SVG Version: 6.00 Build 0)  -->
<svg version="1.1" id="Capa_1" xmlns="http://www.w3.org/2000/svg" xmlns:xlink="http://www.w3.org/1999/xlink" x="0px" y="0px"
	 viewBox="0 0 511 511" style="enable-background:new 0 0 511 511;" xml:space="preserve">
<style type="text/css">
	.st0{fill:#FFFFFF;}
</style>
<path class="st0" d="M43.5,400.3h153.3c4.7,0,8.5-3.8,8.5-8.5c0-4.7-3.8-8.5-8.5-8.5H43.5c-14.1,0-25.6-11.4-25.6-25.6V42.6
	C18,28.5,29.4,17,43.5,17h383.3c14.1,0,25.6,11.4,25.6,25.6v349.2c0,4.7,3.8,8.5,8.5,8.5c4.7,0,8.5-3.8,8.5-8.5V42.6
	c0-23.5-19.1-42.6-42.6-42.6H43.5C20,0,1,19.1,0.9,42.6v315.2C1,381.3,20,400.3,43.5,400.3z"/>
<path class="st0" d="M418.3,212.9c4.7,0,8.5-3.8,8.5-8.5V102.2c0-9.4-7.6-17-17-17H60.6c-9.2-0.2-16.8,7.1-17,16.3v240
	c0.2,9.2,7.8,16.5,17,16.3h119.3c4.7,0,8.5-3.8,8.5-8.5c0-4.7-3.8-8.5-8.5-8.5h-42.6v-34.1h34.1c4.7,0,8.5-3.8,8.5-8.5
	c0-4.7-3.8-8.5-8.5-8.5h-34.1v-34.1h51.1c4.7,0,8.5-3.8,8.5-8.5c0-4.7-3.8-8.5-8.5-8.5h-51.1v-34.1h93.7c4.7,0,8.5-3.8,8.5-8.5
	c0-4.7-3.8-8.5-8.5-8.5h-93.7v-34.1h272.6v51.1C409.8,209.1,413.6,212.9,418.3,212.9z M120.2,102.2v34.1H60.6v-34.1H120.2z
	 M120.2,340.7H60.6v-34.1h59.6V340.7z M120.2,289.6H60.6v-34.1h59.6V289.6z M120.2,238.5H60.6v-34.1h59.6V238.5z M120.2,187.4H60.6
	v-34.1h59.6V187.4z M137.2,136.3v-34.1h272.6v34.1H137.2z"/>
<path class="st0" d="M77.6,59.6c4.7,0,8.5-3.8,8.5-8.5c0-4.7-3.8-8.5-8.5-8.5h-17c-4.7,0-8.5,3.8-8.5,8.5c0,4.7,3.8,8.5,8.5,8.5
	H77.6z"/>
<path class="st0" d="M128.7,59.6c4.7,0,8.5-3.8,8.5-8.5c0-4.7-3.8-8.5-8.5-8.5h-17c-4.7,0-8.5,3.8-8.5,8.5c0,4.7,3.8,8.5,8.5,8.5
	H128.7z"/>
<path class="st0" d="M196.8,59.6c4.7,0,8.5-3.8,8.5-8.5c0-4.7-3.8-8.5-8.5-8.5h-34.1c-4.7,0-8.5,3.8-8.5,8.5c0,4.7,3.8,8.5,8.5,8.5
	H196.8z"/>
<path class="st0" d="M418.3,42.6H230.9c-4.7,0-8.5,3.8-8.5,8.5c0,4.7,3.8,8.5,8.5,8.5h187.4c4.7,0,8.5-3.8,8.5-8.5
	C426.8,46.4,423,42.6,418.3,42.6z"/>
<path class="st0" d="M316.3,230c-5.6,0-11.2,0.5-16.7,1.6c-10.9,2.2-21.3,6.5-30.5,12.6c-4.7,3.1-9,6.7-13,10.7
	c-2.2,2.1-3.1,5.3-2.3,8.3c0.8,3,3.1,5.3,6.1,6.1c3,0.8,6.1-0.1,8.3-2.3c3.2-3.2,6.7-6,10.4-8.5c7.4-4.9,15.7-8.4,24.4-10.1
	c4.4-0.9,8.9-1.3,13.4-1.4c4.7,0,8.5-3.8,8.5-8.5C324.9,233.8,321,230,316.3,230z"/>
<path class="st0" d="M242.8,291.7c-4.6-0.9-9.1,2.1-10,6.7c-1.1,5.5-1.7,11.1-1.7,16.7c0,4.7,3.8,8.5,8.5,8.5c4.7,0,8.5-3.8,8.5-8.5
	c0-4.5,0.4-9,1.3-13.4C250.4,297.1,247.4,292.7,242.8,291.7z"/>
<path class="st0" d="M416.6,379.6c33-51.2,22.1-119.1-25.3-157.4c-47.4-38.3-116-34.7-159.2,8.3c-43.2,43-47,111.6-8.9,159.2
	c38.1,47.5,105.9,58.7,157.3,26l87.9,87.9c10,10,26.1,10,36.1,0s10-26.1,0-36.1L416.6,379.6z M244,387.4
	c-39.9-39.9-39.9-104.6,0-144.5s104.6-39.9,144.6,0c39.9,39.9,39.9,104.6,0,144.5c-19.1,19.3-45.1,30.2-72.3,30.2
	C289.2,417.7,263.1,406.8,244,387.4L244,387.4z M492.4,491.5c-3.3,3.3-8.6,3.3-11.9,0l-86.3-86.3c2.2-1.9,4.4-3.7,6.4-5.8
	c2.1-2.1,3.8-4.1,5.6-6.1l86.2,86.2c1.6,1.6,2.5,3.7,2.5,6C495,487.8,494,490,492.4,491.5L492.4,491.5z"/>
</svg>
