<?xml version="1.0" encoding="utf-8"?>
<!-- Generator: Adobe Illustrator 23.0.1, SVG Export Plug-In . SVG Version: 6.00 Build 0)  -->
<svg version="1.1" id="Capa_1" xmlns="http://www.w3.org/2000/svg" xmlns:xlink="http://www.w3.org/1999/xlink" x="0px" y="0px"
	 viewBox="0 0 433.5 433.5" style="enable-background:new 0 0 433.5 433.5;" xml:space="preserve">
<path d="M311.1,219h-54.2v-81.3h-81.3V219h-54.2l94.8,94.8L311.1,219z M38.2,382.5v51h357v-51H38.2z M81.4,358.2H349
	c6.7,0,12-5.3,12-12V30.9c0-6.7-5.3-12-12-12H148.3c-0.9,0-2,0-2.9,0.3c-0.3,0-0.6,0.3-0.6,0.3c-0.9,0.3-1.5,0.6-2.3,0.9
	c-0.3,0.3-0.6,0.3-0.9,0.6c-0.9,0.6-1.8,1.2-2.3,2l-66.9,78.9c-0.9,0.9-1.5,2-2,3.2c-0.3,0.3-0.3,0.9-0.3,1.2
	c-0.3,0.9-0.3,1.8-0.6,2.6c0,0.3,0,0.3,0,0.6v236.4C69.4,352.9,75,358.2,81.4,358.2z M136.3,63.7v34.5h-29.2L136.3,63.7z
	 M93.4,121.8h54.9c6.7,0,12-5.3,12-12V42.9H337v291.3H93.4C93.4,334.2,93.4,121.8,93.4,121.8z"/>
</svg>
