<?xml version="1.0" encoding="utf-8"?>
<!-- Generator: Adobe Illustrator 22.1.0, SVG Export Plug-In . SVG Version: 6.00 Build 0)  -->
<svg version="1.1" id="Layer_1" xmlns="http://www.w3.org/2000/svg"  x="0px" y="0px"
	 viewBox="0 0 370.9 370.9" style="enable-background:new 0 0 370.9 370.9;" xml:space="preserve">
<style type="text/css">
	.st0{fill:#FFFFFF;}
</style>
<g>
	<g>
		<path class="st0" d="M330.5,82L252.2,3.7c-2.5-2.5-4.9-3.7-8.7-3.7H58.1C45.7,0,34.6,11.1,34.6,23.5v323.9
			c0,12.4,11.1,23.5,23.5,23.5h254.7c13.6,0,23.5-11.1,23.5-23.5V92.7C336.3,87.8,334.1,84,330.5,82z M255.9,42l38.3,38.3h-32.1
			c-3.7,0-6.2-2.5-6.2-6.2V42z M311.6,346.2H59.3v0V24.7h171.9v49.5c0,16.1,14.8,30.9,30.9,30.9h49.5L311.6,346.2L311.6,346.2z"/>
	</g>
</g>
<g>
	<g>
		<path class="st0" d="M278.2,207.7h-115c-7.4,0-12.4,4.9-12.4,12.4c0,7.4,4.9,12.4,12.4,12.4h115c6.2,0,12.4-4.9,12.4-12.4
			C290.5,212.7,285.6,207.7,278.2,207.7z"/>
	</g>
</g>
<g>
	<g>
		<path class="st0" d="M278.2,149.6h-115c-7.4,0-12.4,4.9-12.4,12.4s4.9,12.4,12.4,12.4h115c6.2,0,12.4-4.9,12.4-12.4
			C290.5,154.5,285.6,149.6,278.2,149.6z"/>
	</g>
</g>
<g>
	<g>
		<path class="st0" d="M278.2,265.8h-115c-7.4,0-12.4,4.9-12.4,12.4c0,7.4,4.9,12.4,12.4,12.4h115c6.2,0,12.4-4.9,12.4-12.4
			C290.5,270.8,285.6,265.8,278.2,265.8z"/>
	</g>
</g>
<g>
	<g>
		<path class="st0" d="M138.5,129.8c-4.9-4.9-12.4-4.9-17.3,0l-16.1,16.1l-2.5-2.5c-4.9-4.9-12.4-4.9-17.3,0
			c-4.9,4.9-4.9,12.4,0,17.3l11.1,11.1c2.5,2.5,4.9,3.7,8.7,3.7c2.5,0,6.2-1.2,8.7-3.7l24.7-24.7
			C143.4,142.2,143.4,134.8,138.5,129.8z"/>
	</g>
</g>
<g>
	<g>
		<path class="st0" d="M138.5,186.7c-4.9-4.9-12.4-4.9-17.3,0l-16.1,16.1l-2.5-2.5c-4.9-4.9-12.4-4.9-17.3,0s-4.9,12.4,0,17.3
			l11.1,11.1c2.5,2.5,4.9,3.7,8.7,3.7c2.5,0,6.2-1.2,8.7-3.7l24.7-24.7C143.4,199.1,143.4,191.6,138.5,186.7z"/>
	</g>
</g>
<g>
	<g>
		<path class="st0" d="M138.5,243.6c-4.9-4.9-12.4-4.9-17.3,0l-16.1,16.1l-2.5-2.5c-4.9-4.9-12.4-4.9-17.3,0s-4.9,12.4,0,17.3
			l11.1,11.1c2.5,2.5,4.9,3.7,8.7,3.7c2.5,0,6.2-1.2,8.7-3.7l24.7-24.7C143.4,255.9,143.4,248.5,138.5,243.6z"/>
	</g>
</g>
</svg>
