<?xml version="1.0" encoding="utf-8"?>
<!-- Generator: Adobe Illustrator 23.0.1, SVG Export Plug-In . SVG Version: 6.00 Build 0)  -->
<svg version="1.1" id="Capa_1" xmlns="http://www.w3.org/2000/svg" xmlns:xlink="http://www.w3.org/1999/xlink" x="0px" y="0px"
	 viewBox="0 0 32 35.5" style="enable-background:new 0 0 32 35.5;" xml:space="preserve">
<g id="Capa_2_copia">
	<g>
		<g>
			<g>
				<path d="M28,13.9V5.5c0-3-2.4-5.5-5.5-5.5H5.7c-3,0-5.5,2.4-5.5,5.5v24c0,3,2.4,5.5,5.5,5.5h4.6c0.8,0,1.4,0.2,1.4-0.6
					s-0.6-0.7-1.4-0.7l-4.5-0.1c-1.7,0-3.9-1.8-4-3.9L1.6,5.3c0-1.6,1.8-4,4.1-3.9l16.8,0.1c0.1,0,0.1,0,0.2,0
					c2.2,0.1,3.9,2.4,3.9,3.9v0.1v8.4c0,0.8,0,1.4,0.7,1.4C28.1,15.2,28,14.6,28,13.9z M5.8,33.6c-2.3,0-4.1-2.4-4.1-3.9
					C1.7,31.2,3.5,33.6,5.8,33.6z"/>
				<path d="M30.4,19.8c-1.6-1.6-4.2-1.6-5.8,0l-7.5,7.5c-0.2,0.2-0.3,0.4-0.3,0.6l-1.6,5.4c-0.1,0.5,0,1,0.3,1.3s0.6,0.4,1,0.4
					c0.1,0,0.2,0,0.4,0l5.5-1.5c0.2-0.1,0.4-0.2,0.6-0.3l7.5-7.5C32,24,32,21.4,30.4,19.8z M21.9,32.2l-5.7,1.6l1.8-5.5l5.4-5.4
					l3.9,3.9L21.9,32.2z M29.4,24.6l-1.3,1.3l-3.9-4l1.3-1.3c0.6-0.6,2.4-1.2,3.8,0.1C31,22.3,30,24.1,29.4,24.6z"/>
				<path d="M21.1,8.2h-14c-0.8,0-1.4-0.1-1.4,0.7s0.6,0.6,1.4,0.6h14.1c0.8,0,1.4,0.2,1.4-0.6C22.5,8.2,21.9,8.2,21.1,8.2z"/>
			</g>
		</g>
	</g>
	<path d="M21.2,13.7h-14c-0.8,0-1.4-0.1-1.4,0.7S6.4,15,7.2,15h14.1c0.8,0,1.4,0.2,1.4-0.6C22.6,13.7,22,13.7,21.2,13.7z"/>
	<path d="M15.7,19.1H7.2c-0.8,0-1.4-0.1-1.4,0.7c0,0.8,0.6,0.6,1.4,0.6h8.5c0.8,0,1.4,0.2,1.4-0.6S16.4,19.1,15.7,19.1z"/>
</g>
</svg>
