<?xml version="1.0" encoding="utf-8"?>
<!-- Generator: Adobe Illustrator 22.1.0, SVG Export Plug-In . SVG Version: 6.00 Build 0)  -->
<svg version="1.1" id="Capa_1" xmlns="http://www.w3.org/2000/svg"  x="0px" y="0px"
	 viewBox="0 0 438.5 438.5" style="enable-background:new 0 0 438.5 438.5;" xml:space="preserve">
<style type="text/css">
	.st0{fill:#FFFFFF;}
</style>
<g>
	<g>
		<path class="st0" d="M246.7,182.7c-7.6,0-14.1-2.7-19.4-8c-5.3-5.3-8-11.8-8-19.4V0H64c-7.6,0-14.1,2.7-19.4,8
			c-5.3,5.3-8,11.8-8,19.4v383.7c0,7.6,2.7,14.1,8,19.4c5.3,5.3,11.8,8,19.4,8h310.6c7.6,0,14.1-2.7,19.4-8c5.3-5.3,8-11.8,8-19.4
			V182.7H246.7z M328.9,356.3c0,2.7-0.9,4.9-2.6,6.6s-3.9,2.6-6.6,2.6h-201c-2.7,0-4.9-0.9-6.6-2.6c-1.7-1.7-2.6-3.9-2.6-6.6V338
			c0-2.7,0.9-4.9,2.6-6.6c1.7-1.7,3.9-2.6,6.6-2.6h201c2.7,0,4.9,0.9,6.6,2.6c1.7,1.7,2.6,3.9,2.6,6.6V356.3z M328.9,283.2
			c0,2.7-0.9,4.9-2.6,6.6c-1.7,1.7-3.9,2.6-6.6,2.6h-201c-2.7,0-4.9-0.9-6.6-2.6c-1.7-1.7-2.6-3.9-2.6-6.6v-18.3
			c0-2.7,0.9-4.9,2.6-6.6c1.7-1.7,3.9-2.6,6.6-2.6h201c2.7,0,4.9,0.9,6.6,2.6s2.6,3.9,2.6,6.6V283.2z"/>
		<path class="st0" d="M382.6,108.5l-89.1-89.1C284,9.9,271.4,3.7,255.8,0.9v145.3h145.3C398.3,130.6,392.1,118,382.6,108.5z"/>
	</g>
</g>
</svg>
