<?xml version="1.0" encoding="utf-8"?>
<!-- Generator: Adobe Illustrator 23.0.1, SVG Export Plug-In . SVG Version: 6.00 Build 0)  -->
<svg version="1.1" id="Capa_1" xmlns="http://www.w3.org/2000/svg" xmlns:xlink="http://www.w3.org/1999/xlink" x="0px" y="0px"
	 viewBox="0 0 32 35.5" style="enable-background:new 0 0 32 35.5;" xml:space="preserve">
<style type="text/css">
	.st0{fill:#070308;}
</style>
<g>
	<g>
		<g>
			<path class="st0" d="M22.8,15.3c0-0.8-0.6-1.4-1.4-1.4H7.1c-0.8,0-1.4,0.6-1.4,1.4c0,0.8,0.6,1.4,1.4,1.4h14.3
				C22.2,16.7,22.8,16.1,22.8,15.3z"/>
			<path class="st0" d="M7.1,19.5c-0.8,0-1.4,0.6-1.4,1.4s0.6,1.4,1.4,1.4h8.7c0.8,0,1.4-0.6,1.4-1.4s-0.6-1.4-1.4-1.4H7.1z"/>
			<path class="st0" d="M10.4,32.8H5.7C4.2,32.8,3,31.5,3,30V5.6C3,4,4.2,2.8,5.7,2.8h17.1c1.5,0,2.8,1.2,2.8,2.8v8.5
				c0,0.8,0.6,1.4,1.4,1.4c0.8,0,1.4-0.6,1.4-1.4V5.6c0-3.1-2.5-5.6-5.6-5.6H5.7C2.7,0,0.2,2.5,0.2,5.6V30c0,3.1,2.5,5.6,5.6,5.6
				h4.6c0.8,0,1.4-0.6,1.4-1.4C11.8,33.4,11.2,32.8,10.4,32.8z"/>
			<path class="st0" d="M30.8,20.1c-1.6-1.6-4.3-1.6-5.9,0l-7.6,7.6c-0.2,0.2-0.3,0.4-0.3,0.6l-1.7,5.5c-0.1,0.5,0,1,0.3,1.4
				c0.3,0.3,0.6,0.4,1,0.4c0.1,0,0.2,0,0.4-0.1l5.6-1.6c0.2-0.1,0.4-0.2,0.6-0.4l7.6-7.6C32.5,24.4,32.5,21.7,30.8,20.1z M21.5,31.4
				l-2.8,0.8l0.8-2.7l5.1-5.1l2,2L21.5,31.4z M28.9,24l-0.3,0.3l-2-2l0.3-0.3c0.5-0.5,1.4-0.5,2,0C29.4,22.6,29.4,23.5,28.9,24z"/>
			<path class="st0" d="M21.4,8.3H7.1C6.4,8.3,5.7,9,5.7,9.7c0,0.8,0.6,1.4,1.4,1.4h14.3c0.8,0,1.4-0.6,1.4-1.4
				C22.8,9,22.2,8.3,21.4,8.3z"/>
		</g>
	</g>
</g>
</svg>
