<?xml version="1.0" encoding="utf-8"?>
<!-- Generator: Adobe Illustrator 22.1.0, SVG Export Plug-In . SVG Version: 6.00 Build 0)  -->
<svg version="1.1" id="Capa_1" xmlns="http://www.w3.org/2000/svg"  x="0px" y="0px"
	 viewBox="0 0 512 512" style="enable-background:new 0 0 512 512;" xml:space="preserve">
<style type="text/css">
	.st0{fill:#FFFFFF;}
</style>
<path class="st0" d="M421.5,237.3v-30H482V54H271v153.2h60.5v30h-90.5c-1.1-38.9-23.7-72.4-56.3-89.3c14.4-13,23.5-31.9,23.5-52.8
	c0-39.3-31.9-71.2-71.2-71.2c-39.3,0-71.2,31.9-71.2,71.2c0,20.9,9.1,39.8,23.5,52.8c-32.6,16.9-55.1,50.5-56.3,89.3H0v250.2h512
	V237.3H421.5z M301,84h151v93.2H301V84z M361.5,207.3h30v30h-30V207.3z M95.8,95.2C95.8,72.5,114.2,54,137,54
	c22.7,0,41.2,18.5,41.2,41.2s-18.5,41.2-41.2,41.2S95.8,117.9,95.8,95.2z M137,166.4c39.8,0,72.3,31.5,73.9,70.9H63
	C64.7,197.9,97.2,166.4,137,166.4z M482,267.3v30H30v-30H482z M30,457.5V327.4h452v130.1H30z"/>
</svg>
