<?xml version="1.0" encoding="utf-8"?>
<!-- Generator: Adobe Illustrator 22.1.0, SVG Export Plug-In . SVG Version: 6.00 Build 0)  -->
<svg version="1.1" id="Capa_1" xmlns="http://www.w3.org/2000/svg"  x="0px" y="0px"
	 viewBox="0 0 463.2 463.2" style="enable-background:new 0 0 463.2 463.2;" xml:space="preserve">
<style type="text/css">
	.st0{fill:#FFFFFF;}
</style>
<g>
	<path class="st0" d="M387.4,54.3c15,0,27.1-12.2,27.1-27.1c0-15-12.2-27.1-27.1-27.1c-15,0-27.1,12.2-27.1,27.1
		C360.3,42.1,372.5,54.3,387.4,54.3z"/>
	<path class="st0" d="M337.6,128.4c1.4,0.7,2.9,1.2,4.4,1.3c0.3,0,0.6,0,0.8,0c4.3,0,8.1-2.4,10.1-6.1l7.4-14.2v20.9
		c0,3.1,2.5,5.6,5.6,5.6h44.4c3.1,0,5.6-2.5,5.6-5.6v-22.2l8.1,15.5c2,3.8,5.9,6.1,10.1,6.1c0.3,0,0.5,0,0.8,0
		c1.6-0.1,3-0.5,4.4-1.3c2.7-1.4,4.7-3.8,5.6-6.7c0.9-2.9,0.6-6-0.8-8.7l-25.6-49.1c-2-3.8-4.9-6.1-10.1-6.1c-0.2,0-40.3,0-40.3,0
		c-4.9,0-8,2.6-9.9,6.1L332.8,113c-1.4,2.7-1.7,5.8-0.8,8.7C332.9,124.6,334.9,127,337.6,128.4z"/>
	<path class="st0" d="M387.4,163.7c-15,0-27.1,12.2-27.1,27.1c0,15,12.2,27.1,27.1,27.1c15,0,27.1-12.2,27.1-27.1
		C414.5,175.8,402.4,163.7,387.4,163.7z"/>
	<path class="st0" d="M418.7,227.5c-2-3.8-5.9-6.1-10.1-6.1c-0.2,0-40.3,0-40.3,0c-4.8,0-8,2.6-9.9,6.1l-25.6,49.1
		c-1.4,2.7-1.7,5.8-0.8,8.7c0.9,2.9,2.9,5.3,5.6,6.7c1.4,0.7,2.9,1.2,4.4,1.3c0.3,0,0.6,0,0.8,0c4.3,0,8.1-2.4,10.1-6.1l7.4-14.2
		v20.9c0,3.1,2.5,5.6,5.6,5.6h44.4c3.1,0,5.6-2.5,5.6-5.6v-22.2l8.1,15.5c2,3.8,5.9,6.1,10.1,6.1c0.3,0,0.5,0,0.8,0
		c1.6-0.1,3-0.5,4.4-1.3c2.7-1.4,4.7-3.8,5.6-6.7c0.9-2.9,0.6-6-0.8-8.7L418.7,227.5z"/>
	<path class="st0" d="M414.5,354.4c0-15-12.2-27.1-27.1-27.1c-15,0-27.1,12.2-27.1,27.1c0,15,12.2,27.1,27.1,27.1
		C402.4,381.6,414.5,369.4,414.5,354.4z"/>
	<path class="st0" d="M418.7,391.2c-2-3.8-5.9-6.1-10.1-6.1c-0.2,0-40.3,0-40.3,0c-4.9,0-8,2.6-9.9,6.1l-25.6,49.1
		c-1.4,2.7-1.7,5.8-0.8,8.7c0.9,2.9,2.9,5.3,5.6,6.7c1.4,0.7,2.9,1.2,4.4,1.3c0.3,0,0.6,0,0.8,0c4.3,0,8.1-2.4,10.1-6.1l7.4-14.2
		v20.9c0,3.1,2.5,5.6,5.6,5.6h44.4c3.1,0,5.6-2.5,5.6-5.6v-22.2l8.1,15.5c2,3.8,5.9,6.1,10.1,6.1c0.3,0,0.5,0,0.8,0
		c1.6-0.1,3-0.5,4.4-1.3c2.7-1.4,4.7-3.8,5.6-6.7c0.9-2.9,0.6-6-0.8-8.7L418.7,391.2z"/>
	<path class="st0" d="M317.8,75.1c5,0,9-4,9-9s-4-9-9-9h-55.7c-7.2,0-13,5.8-13,13v166.3h-16.5c-5,0-9,4-9,9s4,9,9,9h16.5v166.3
		c0,7.2,5.8,13,13,13h55.7c5,0,9-4,9-9s-4-9-9-9h-50.7V254.4h50.7c5,0,9-4,9-9s-4-9-9-9h-50.7V75.1H317.8z"/>
	<path class="st0" d="M112.2,147.9c-52.2,0-94.7,42.5-94.7,94.7c0,52.2,42.5,94.7,94.7,94.7c52.2,0,94.7-42.5,94.7-94.7
		C206.9,190.4,164.5,147.9,112.2,147.9z M112.2,319.3c-42.3,0-76.7-34.4-76.7-76.7c0-42.3,34.4-76.7,76.7-76.7
		c42.3,0,76.7,34.4,76.7,76.7S154.5,319.3,112.2,319.3z"/>
	<path class="st0" d="M164.8,200.7c-5.2-4.1-12.7-3.2-16.9,2l-44,55.8l-29.4-22.3c-5.3-4-12.8-3-16.8,2.3c-4,5.3-3,12.8,2.3,16.8
		l36.4,27.6c2.7,2,5.9,3,9.1,3c4.5,0,8.9-2,11.9-5.7l49.5-62.6C170.8,212.3,170,204.8,164.8,200.7z"/>
</g>
</svg>
